<svg width="41" height="39" viewBox="0 0 41 39" fill="none" xmlns="http://www.w3.org/2000/svg">
<path d="M15.5444 17.2113C17.1908 11.9246 13.7813 9.03072 11.5213 7.12874C11.0892 6.74016 10.657 6.37715 10.307 6.04481C9.68145 5.42027 9.22063 4.59631 8.97932 3.67091C8.73802 2.74551 8.72638 1.75758 8.94581 0.824586C8.96836 0.726969 8.96779 0.623897 8.94419 0.526631C8.92059 0.429365 8.87485 0.341643 8.81197 0.273048C8.74909 0.204452 8.67149 0.157622 8.58764 0.13767C8.50379 0.117718 8.41691 0.125412 8.33651 0.159913C7.57542 0.516204 6.86776 1.01512 6.24068 1.63753C5.63819 2.18712 5.15008 2.89266 4.81375 3.70005C4.47743 4.50743 4.30183 5.39522 4.30043 6.29534C3.87429 6.69283 3.49753 7.15926 3.18122 7.68093C2.60012 8.61947 2.30878 9.76549 2.35585 10.9276C1.66367 11.6798 1.14815 12.6315 0.859595 13.6898C0.571038 14.7481 0.5193 15.8769 0.709442 16.9659C0.434073 17.1627 0.22093 17.4611 0.102737 17.8151C-0.0154548 18.1692 -0.0321654 18.5593 0.0551832 18.9257C0.142532 19.2921 0.329111 19.6144 0.586258 19.8432C0.843405 20.0719 1.15691 20.1945 1.47863 20.1921H1.50888V23.1984C1.50888 23.5036 1.61131 23.7962 1.79365 24.0119C1.97599 24.2276 2.22331 24.3488 2.48117 24.3488H3.2374L4.46897 36.9776C4.49457 37.2587 4.60716 37.5187 4.78507 37.7075C4.96298 37.8963 5.19362 38.0005 5.4326 38.0002H10.5577C10.7968 37.9995 11.0275 37.8951 11.2059 37.7066C11.3843 37.5181 11.4981 37.2587 11.5256 36.9776L12.7572 24.3488H13.5134C13.7713 24.3488 14.0186 24.2276 14.2009 24.0119C14.3833 23.7962 14.4857 23.5036 14.4857 23.1984V20.1921H14.516C14.9068 20.1921 15.2816 20.0084 15.5579 19.6814C15.8343 19.3545 15.9895 18.911 15.9895 18.4486C15.9915 18.2178 15.9542 17.9889 15.88 17.7755C15.8058 17.5621 15.6961 17.3685 15.5574 17.2062L15.5444 17.2113ZM4.45168 7.61957C5.07394 10.3856 7.47658 11.4747 9.66747 12.4461C9.72638 12.489 9.79254 12.516 9.86126 12.5253C9.92999 12.5345 9.99957 12.5257 10.0651 12.4995C10.1306 12.4733 10.1905 12.4304 10.2404 12.3737C10.2903 12.3171 10.3291 12.2481 10.3539 12.1717C10.3788 12.0954 10.3891 12.0135 10.3842 11.9318C10.3793 11.8502 10.3592 11.7709 10.3254 11.6994C10.2917 11.628 10.245 11.5663 10.1888 11.5186C10.1326 11.4709 10.0682 11.4385 10.0002 11.4235C7.64079 10.3652 5.41532 9.3784 5.24679 6.55098C5.2073 5.77377 5.33061 4.99704 5.60576 4.28974C5.88091 3.58245 6.29939 2.96647 6.82406 2.49649C7.15276 2.17289 7.50568 1.88539 7.87845 1.63753C7.85445 1.99145 7.85445 2.34708 7.87845 2.701C7.92846 3.51122 8.11568 4.30126 8.42895 5.02414C8.74223 5.74702 9.17517 6.38797 9.70204 6.90888C10.0607 7.2719 10.5058 7.64514 10.9984 8.04394C12.1349 9.01027 13.427 10.0891 14.248 11.5514C14.6861 12.3013 14.9587 13.1689 15.0409 14.0753C15.1232 14.9817 15.0125 15.898 14.719 16.7409H14.5376H12.809C8.87235 16.7409 4.34797 15.4525 3.45346 11.8428C3.27601 11.1002 3.27746 10.3137 3.45766 9.57197C3.63785 8.83028 3.98962 8.16291 4.47328 7.64514L4.45168 7.61957ZM7.99512 25.0493L9.43845 26.757L7.99512 28.4647L6.55182 26.7468L7.99512 25.0493ZM11.3052 29.5333L10.1126 30.9444L8.66924 29.2367L10.1126 27.5341L11.3657 29.0118L11.3052 29.5333ZM7.99512 33.4497L6.55182 31.742L7.99512 30.0343L9.43845 31.742L7.99512 33.4497ZM7.33397 29.247L5.89066 30.9547L4.68934 29.5333L4.63749 29.022L5.89066 27.5444L7.33397 29.247ZM5.22519 31.742L4.93566 32.0846L4.86219 31.3074L5.22519 31.742ZM5.07394 33.4906L5.89066 32.5243L7.47658 34.4161C7.48469 34.4543 7.4948 34.4918 7.50683 34.5285H5.17333L5.07394 33.4906ZM10.1039 32.5243L10.9206 33.4906L10.8212 34.5132H8.42294L10.1039 32.5243ZM11.0546 32.0846L10.7651 31.742L11.1324 31.3074L11.0546 32.0846ZM11.4867 27.616L10.7651 26.7468L11.6812 25.6628L11.4867 27.616ZM10.0996 25.9696L8.72975 24.354H11.4694L10.0996 25.9696ZM5.88635 25.9696L4.51649 24.354H7.25619L5.88635 25.9696ZM10.5533 36.8907H5.4326C5.4249 36.8896 5.41773 36.8855 5.41224 36.879C5.40676 36.8725 5.40327 36.864 5.40235 36.8549L5.28136 35.6278H10.7089L10.5922 36.8549C10.5912 36.8648 10.5871 36.874 10.5807 36.8806C10.5743 36.8872 10.5661 36.8908 10.5577 36.8907H10.5533ZM14.516 19.0775H13.0121C12.9468 19.0701 12.8808 19.0789 12.8185 19.1034C12.7562 19.1279 12.6989 19.1675 12.6503 19.2197C12.6018 19.272 12.5629 19.3357 12.5364 19.4067C12.5098 19.4777 12.4961 19.5546 12.4961 19.6322C12.4961 19.7099 12.5098 19.7867 12.5364 19.8578C12.5629 19.9288 12.6018 19.9925 12.6503 20.0447C12.6989 20.097 12.7562 20.1366 12.8185 20.1611C12.8808 20.1856 12.9468 20.1944 13.0121 20.187H13.548V23.1933C13.5469 23.2033 13.5428 23.2124 13.5365 23.219C13.5301 23.2256 13.5219 23.2292 13.5134 23.2291H2.46388C2.45542 23.2292 2.44722 23.2256 2.44084 23.219C2.43447 23.2124 2.43038 23.2033 2.42932 23.1933V20.187H10.9898C11.1064 20.1737 11.2146 20.1095 11.2933 20.007C11.3721 19.9044 11.4157 19.7708 11.4157 19.6322C11.4157 19.4937 11.3721 19.3601 11.2933 19.2575C11.2146 19.1549 11.1064 19.0907 10.9898 19.0775H1.48296C1.40884 19.0854 1.33414 19.0749 1.26362 19.0468C1.19311 19.0186 1.12831 18.9734 1.07338 18.914C1.01845 18.8546 0.974579 18.7823 0.944563 18.7018C0.914547 18.6212 0.899039 18.5341 0.899039 18.446C0.899039 18.358 0.914547 18.2709 0.944563 18.1903C0.974579 18.1098 1.01845 18.0375 1.07338 17.9781C1.12831 17.9187 1.19311 17.8735 1.26362 17.8453C1.33414 17.8172 1.40884 17.8067 1.48296 17.8146H2.46388C2.58047 17.8014 2.68869 17.7372 2.76745 17.6346C2.8462 17.532 2.88984 17.3984 2.88984 17.2599C2.88984 17.1213 2.8462 16.9877 2.76745 16.8851C2.68869 16.7826 2.58047 16.7184 2.46388 16.7051H1.59963C1.47584 15.9272 1.49595 15.1267 1.65857 14.3589C1.8212 13.591 2.12246 12.8739 2.54166 12.2569C2.84415 13.3715 3.62198 14.8952 5.56656 16.1069C7.39447 17.2369 9.81439 17.8146 12.7572 17.8146H14.4857C14.5598 17.8067 14.6345 17.8172 14.705 17.8453C14.7756 17.8735 14.8403 17.9187 14.8953 17.9781C14.9502 18.0375 14.9941 18.1098 15.0241 18.1903C15.0541 18.2709 15.0696 18.358 15.0696 18.446C15.0696 18.5341 15.0541 18.6212 15.0241 18.7018C14.9941 18.7823 14.9502 18.8546 14.8953 18.914C14.8403 18.9734 14.7756 19.0186 14.705 19.0468C14.6345 19.0749 14.5598 19.0854 14.4857 19.0775H14.516Z" fill="white"/>
<mask id="path-2-outside-1_2010_236" maskUnits="userSpaceOnUse" x="16" y="28" width="21" height="9" fill="black">
<rect fill="white" x="16" y="28" width="21" height="9"/>
<path d="M24.1443 31.0918C22.1027 31.0918 21.0818 31.5407 21.0818 32.4385C21.0818 32.9215 21.2846 33.2952 21.6902 33.5596C22.1004 33.8193 22.6997 33.9492 23.4881 33.9492C24.2811 33.9492 25.0535 33.8854 25.8055 33.7578L25.8533 35.9111C24.9874 36.139 24.0441 36.2529 23.0232 36.2529C22.0024 36.2529 21.1456 36.1732 20.4529 36.0137C19.7602 35.8587 19.2179 35.6855 18.826 35.4941C18.434 35.3027 18.0877 35.0794 17.7869 34.8242C17.1398 34.2773 16.8185 33.5482 16.823 32.6367C16.823 32.0716 16.9347 31.5612 17.158 31.1055C17.5682 30.2715 18.2837 29.6608 19.3045 29.2734C20.3253 28.8815 21.451 28.6855 22.6814 28.6855C23.9119 28.6855 25.0786 28.8223 26.1814 29.0957L26.0105 31.29C25.3133 31.1579 24.6912 31.0918 24.1443 31.0918ZM32.9709 31.7207C32.9663 31.2923 32.8661 30.9893 32.6701 30.8115C32.4787 30.6338 32.1962 30.5449 31.8225 30.5449C31.4533 30.5449 31.1548 30.6566 30.927 30.8799C30.6991 31.0986 30.5578 31.3743 30.5031 31.707L32.9709 31.7207ZM35.6506 35.4395C35.368 35.6536 34.8645 35.8405 34.1398 36C33.4152 36.1641 32.7111 36.2461 32.0275 36.2461C31.3485 36.2461 30.772 36.2142 30.298 36.1504C29.8241 36.0866 29.3547 35.9727 28.8898 35.8086C28.425 35.64 28.0262 35.4281 27.6936 35.1729C27.3654 34.9131 27.0988 34.5781 26.8938 34.168C26.6887 33.7533 26.5861 33.2588 26.5861 32.6846C26.5861 32.1058 26.691 31.5749 26.9006 31.0918C27.1102 30.6087 27.3814 30.2191 27.7141 29.9229C28.6392 29.098 29.979 28.6855 31.7336 28.6855C32.5676 28.6855 33.3605 28.8451 34.1125 29.1641C34.8645 29.4922 35.3999 29.9844 35.7189 30.6406C35.9012 31.0098 35.9924 31.4176 35.9924 31.8643L35.9104 32.9922L30.3664 32.9648C30.4758 33.3796 30.7401 33.7054 31.1594 33.9424C31.5832 34.1794 32.1597 34.2979 32.8889 34.2979C33.618 34.2979 34.4589 34.0996 35.4113 33.7031H35.7805L35.6506 35.4395Z"/>
</mask>
<path d="M21.6902 33.5596L21.4172 33.9785L21.4227 33.982L21.6902 33.5596ZM25.8055 33.7578L26.3053 33.7467L26.2925 33.168L25.7218 33.2649L25.8055 33.7578ZM25.8533 35.9111L25.9806 36.3947L26.362 36.2943L26.3532 35.9L25.8533 35.9111ZM20.4529 36.0137L20.5651 35.5264L20.5621 35.5257L20.4529 36.0137ZM17.7869 34.8242L18.1104 34.443L18.1096 34.4423L17.7869 34.8242ZM16.823 32.6367L17.323 32.6392V32.6367H16.823ZM17.158 31.1055L16.7093 30.8848L16.709 30.8855L17.158 31.1055ZM19.3045 29.2734L19.4819 29.7409L19.4837 29.7402L19.3045 29.2734ZM26.1814 29.0957L26.6799 29.1345L26.7128 28.7123L26.3018 28.6104L26.1814 29.0957ZM26.0105 31.29L25.9174 31.7813L26.4657 31.8852L26.509 31.3289L26.0105 31.29ZM24.1443 30.5918C23.1023 30.5918 22.2528 30.704 21.6462 30.9708C21.3372 31.1066 21.0677 31.2928 20.8748 31.5473C20.677 31.8081 20.5818 32.1122 20.5818 32.4385H21.5818C21.5818 32.3158 21.6142 32.2271 21.6717 32.1514C21.734 32.0691 21.8473 31.9747 22.0487 31.8862C22.4629 31.704 23.1447 31.5918 24.1443 31.5918V30.5918ZM20.5818 32.4385C20.5818 33.091 20.8704 33.6221 21.4172 33.9785L21.9632 33.1407C21.6989 32.9684 21.5818 32.7521 21.5818 32.4385H20.5818ZM21.4227 33.982C21.9484 34.3149 22.6584 34.4492 23.4881 34.4492V33.4492C22.741 33.4492 22.2523 33.3237 21.9578 33.1372L21.4227 33.982ZM23.4881 34.4492C24.308 34.4492 25.1085 34.3832 25.8891 34.2508L25.7218 33.2649C24.9986 33.3876 24.2541 33.4492 23.4881 33.4492V34.4492ZM25.3056 33.7689L25.3534 35.9222L26.3532 35.9L26.3053 33.7467L25.3056 33.7689ZM25.7261 35.4276C24.907 35.6431 24.007 35.7529 23.0232 35.7529V36.7529C24.0811 36.7529 25.0678 36.6349 25.9806 36.3947L25.7261 35.4276ZM23.0232 35.7529C22.0253 35.7529 21.2089 35.6747 20.5651 35.5264L20.3407 36.5009C21.0823 36.6717 21.9795 36.7529 23.0232 36.7529V35.7529ZM20.5621 35.5257C19.8869 35.3747 19.3873 35.2118 19.0454 35.0449L18.6066 35.9434C19.0485 36.1593 19.6335 36.3427 20.3438 36.5016L20.5621 35.5257ZM19.0454 35.0449C18.687 34.8698 18.3763 34.6686 18.1104 34.443L17.4634 35.2055C17.7991 35.4903 18.1811 35.7357 18.6066 35.9434L19.0454 35.0449ZM18.1096 34.4423C17.585 33.999 17.3192 33.4154 17.323 32.6392L16.3231 32.6342C16.3178 33.681 16.6946 34.5557 17.4642 35.2061L18.1096 34.4423ZM17.323 32.6367C17.323 32.1391 17.4209 31.7053 17.607 31.3255L16.709 30.8855C16.4485 31.4171 16.323 32.0041 16.323 32.6367H17.323ZM17.6067 31.3261C17.9513 30.6254 18.5574 30.0917 19.4819 29.7409L19.1271 28.806C18.0099 29.2299 17.185 29.9176 16.7093 30.8848L17.6067 31.3261ZM19.4837 29.7402C20.4406 29.3728 21.5046 29.1855 22.6814 29.1855V28.1855C21.3973 28.1855 20.21 28.3902 19.1253 28.8067L19.4837 29.7402ZM22.6814 29.1855C23.8747 29.1855 25.0007 29.3181 26.0611 29.581L26.3018 28.6104C25.1564 28.3264 23.9491 28.1855 22.6814 28.1855V29.1855ZM25.683 29.0569L25.5121 31.2512L26.509 31.3289L26.6799 29.1345L25.683 29.0569ZM26.1037 30.7988C25.3842 30.6624 24.7301 30.5918 24.1443 30.5918V31.5918C24.6523 31.5918 25.2423 31.6533 25.9174 31.7813L26.1037 30.7988ZM32.9709 31.7207L32.9681 32.2207L33.4763 32.2235L33.4709 31.7154L32.9709 31.7207ZM32.6701 30.8115L32.3299 31.1779L32.3342 31.1819L32.6701 30.8115ZM30.927 30.8799L31.2732 31.2406L31.2769 31.237L30.927 30.8799ZM30.5031 31.707L30.0097 31.6259L29.9148 32.2038L30.5004 32.207L30.5031 31.707ZM35.6506 35.4395L35.9526 35.8379L36.1324 35.7017L36.1492 35.4768L35.6506 35.4395ZM34.1398 36L34.0324 35.5117L34.0294 35.5123L34.1398 36ZM28.8898 35.8086L28.7193 36.2786L28.7234 36.2801L28.8898 35.8086ZM27.6936 35.1729L27.3832 35.5649L27.3892 35.5696L27.6936 35.1729ZM26.8938 34.168L26.4456 34.3896L26.4465 34.3916L26.8938 34.168ZM27.7141 29.9229L28.0466 30.2963L28.0468 30.296L27.7141 29.9229ZM34.1125 29.1641L34.3125 28.7058L34.3078 28.7038L34.1125 29.1641ZM35.7189 30.6406L35.2693 30.8592L35.2706 30.862L35.7189 30.6406ZM35.9924 31.8643L36.4911 31.9005L36.4924 31.8824V31.8643H35.9924ZM35.9104 32.9922L35.9079 33.4922L36.3751 33.4945L36.409 33.0285L35.9104 32.9922ZM30.3664 32.9648L30.3689 32.4648L29.7166 32.4616L29.8829 33.0924L30.3664 32.9648ZM31.1594 33.9424L30.9133 34.3777L30.9154 34.3788L31.1594 33.9424ZM35.4113 33.7031V33.2031H35.3114L35.2192 33.2415L35.4113 33.7031ZM35.7805 33.7031L36.2791 33.7404L36.3193 33.2031H35.7805V33.7031ZM33.4709 31.7154C33.4657 31.2313 33.3539 30.7567 33.006 30.4412L32.3342 31.1819C32.3782 31.2218 32.467 31.3533 32.4709 31.726L33.4709 31.7154ZM33.0103 30.4451C32.6932 30.1507 32.2682 30.0449 31.8225 30.0449V31.0449C32.1241 31.0449 32.2642 31.1169 32.3299 31.1779L33.0103 30.4451ZM31.8225 30.0449C31.3446 30.0449 30.913 30.1934 30.577 30.5228L31.2769 31.237C31.3966 31.1197 31.562 31.0449 31.8225 31.0449V30.0449ZM30.5807 30.5192C30.2694 30.818 30.0807 31.1942 30.0097 31.6259L30.9965 31.7881C31.0349 31.5545 31.1287 31.3793 31.2732 31.2406L30.5807 30.5192ZM30.5004 32.207L32.9681 32.2207L32.9737 31.2207L30.5059 31.207L30.5004 32.207ZM35.3485 35.041C35.1582 35.1853 34.747 35.3544 34.0324 35.5117L34.2473 36.4883C34.9819 36.3266 35.5779 36.122 35.9526 35.8379L35.3485 35.041ZM34.0294 35.5123C33.3379 35.6689 32.6709 35.7461 32.0275 35.7461V36.7461C32.7513 36.7461 33.4925 36.6592 34.2503 36.4877L34.0294 35.5123ZM32.0275 35.7461C31.3624 35.7461 30.8096 35.7147 30.3648 35.6549L30.2313 36.6459C30.7344 36.7136 31.3346 36.7461 32.0275 36.7461V35.7461ZM30.3648 35.6549C29.9258 35.5958 29.4898 35.4901 29.0563 35.3371L28.7234 36.2801C29.2196 36.4552 29.7224 36.5774 30.2313 36.6459L30.3648 35.6549ZM29.0603 35.3386C28.6352 35.1843 28.2835 34.9952 27.9979 34.7761L27.3892 35.5696C27.769 35.8609 28.2148 36.0956 28.7193 36.2786L29.0603 35.3386ZM28.0039 34.7808C27.7385 34.5707 27.5165 34.2954 27.341 33.9444L26.4465 34.3916C26.6812 34.8609 26.9924 35.2555 27.3832 35.5649L28.0039 34.7808ZM27.3419 33.9463C27.1782 33.6151 27.0861 33.2001 27.0861 32.6846H26.0861C26.0861 33.3175 26.1992 33.8914 26.4456 34.3896L27.3419 33.9463ZM27.0861 32.6846C27.0861 32.1674 27.1795 31.7051 27.3593 31.2908L26.4419 30.8928C26.2024 31.4446 26.0861 32.0441 26.0861 32.6846H27.0861ZM27.3593 31.2908C27.5452 30.8624 27.7771 30.5362 28.0466 30.2963L27.3816 29.5494C26.9857 29.9019 26.6752 30.3551 26.4419 30.8928L27.3593 31.2908ZM28.0468 30.296C28.8485 29.5812 30.0511 29.1855 31.7336 29.1855V28.1855C29.907 28.1855 28.4299 28.6147 27.3813 29.5497L28.0468 30.296ZM31.7336 29.1855C32.5019 29.1855 33.2284 29.3321 33.9172 29.6244L34.3078 28.7038C33.4927 28.358 32.6332 28.1855 31.7336 28.1855V29.1855ZM33.9125 29.6223C34.5698 29.9092 35.0088 30.3234 35.2693 30.8592L36.1686 30.422C35.7911 29.6453 35.1591 29.0752 34.3125 28.7058L33.9125 29.6223ZM35.2706 30.862C35.4161 31.1566 35.4924 31.4878 35.4924 31.8643H36.4924C36.4924 31.3475 36.3864 30.8629 36.1673 30.4192L35.2706 30.862ZM35.4937 31.828L35.4117 32.9559L36.409 33.0285L36.4911 31.9005L35.4937 31.828ZM35.9128 32.4922L30.3689 32.4648L30.3639 33.4648L35.9079 33.4922L35.9128 32.4922ZM29.8829 33.0924C30.0311 33.6541 30.3925 34.0833 30.9133 34.3777L31.4054 33.5071C31.0877 33.3275 30.9205 33.105 30.8499 32.8373L29.8829 33.0924ZM30.9154 34.3788C31.442 34.6733 32.1138 34.7979 32.8889 34.7979V33.7979C32.2056 33.7979 31.7244 33.6855 31.4034 33.506L30.9154 34.3788ZM32.8889 34.7979C33.7053 34.7979 34.6135 34.5768 35.6035 34.1647L35.2192 33.2415C34.3042 33.6224 33.5308 33.7979 32.8889 33.7979V34.7979ZM35.4113 34.2031H35.7805V33.2031H35.4113V34.2031ZM35.2819 33.6658L35.152 35.4022L36.1492 35.4768L36.2791 33.7404L35.2819 33.6658Z" fill="white" mask="url(#path-2-outside-1_2010_236)"/>
</svg>
